<svg width="131" height="117" xmlns="http://www.w3.org/2000/svg">
 <!-- Created with Method Draw - http://github.com/duopixel/Method-Draw/ -->

 <g>
  <title>background</title>
  <rect fill="#fff" id="canvas_background" height="119" width="133" y="-1" x="-1"/>
  <g display="none" overflow="visible" y="0" x="0" height="100%" width="100%" id="canvasGrid">
   <rect fill="url(#gridpattern)" stroke-width="0" y="1" x="1" height="400" width="580"/>
  </g>
 </g>
 <g>
  <title>Layer 1</title>
  <g id="svg_9">
   <g id="svg_4" fill="#000000" transform="matrix(0.0123457, 0, 0, -0.0123457, 0, 119.383)">
    <path fill="#28272d" id="svg_5" d="m0.158203,4834.999512l0,-4834.999847l5400.000001,0l5400,0l0,4834.999847l0,4835.000488l-5400,0l-5400.000001,0l0,-4835.000488zm5731.000001,1147c34,-17 65,-44 84,-71l30,-43l3,-806c2,-557 -1,-832 -8,-887c-12,-84.999756 -63,-223.999756 -112,-308.999756c-117,-200 -284,-341 -504,-426c-129,-50 -217,-63 -378,-58c-131,4 -149,7 -251,43c-270,93 -465,264 -581,511c-70,150 -79,191.999756 -79,408.999756c0,220 8,259 86,421c58,119 98,175 193,268c163,158 328,236 586,274c71,11 94,10 215,-6c111,-15 242,-60 378,-130c4,-2 7,134 7,303c0,198 4,323 12,353c37,151 187,223 319,154zm2230,17c57,-17 109,-66 135,-126l24,-54l0,-772c0,-642 -3,-786 -15,-858c-70,-400.999756 -372,-710.999756 -773,-793.999756c-95,-19 -272,-19 -368,0c-293,61 -537,246 -672,510c-78,152 -102,252.999756 -102,431.999756c0,187 24,295 102,448c153,304 458,503 798,522c179,10 322,-18 480,-95c41,-20 80,-37 85,-37c6,0 12,123 15,341l5,341l30,49c52,84 157,122 256,93zm-6752,-20c39,-8 59,-20 94,-58c25,-27 50,-66 56,-87c8,-27 11,-400 11,-1196c0,-1248.999756 2,-1202.999756 -53,-1363.999756c-30,-86 -46,-118 -104,-203c-57,-84 -91,-120 -178,-190c-135,-108 -312,-176 -485,-187c-125,-8 -167,4 -230,64c-65,64 -84,135 -59,225c23,83 127,157 220,157c138,0 304,98 378,221c58,99 55,29 61,1298.999756l5,1166l26,49c48,94 137,130 258,104zm7637,-584c24,-14 52,-37 64,-52c50,-64 50,-66 50,-543c0,-493 5,-551 58,-664c61,-127.999756 155,-213.999756 290,-262.999756c83,-30 221,-32 313,-3c176,54 297,197 338,397.999756c7,33 11,222 11,508c0,501 1,512 60,574c51,55 94,73 170,74c84,1 126,-15 176,-64c81,-78 74,42 74,-1372.999756c0,-1456 5,-1367 -92,-1577c-132,-285 -397,-507.000122 -698,-583.000122c-71,-18 -114,-21 -255,-21c-199,0 -269,13 -409,74c-288,126 -490,348.000122 -590,646.000122c-36,106 -49,185 -49,304c0,119 13,164 66,218c51,54 83,66 172,66c69,0 86,-4 125,-27c84,-49 120,-116 120,-222c0,-96 18,-173 61,-263c77,-160 223,-272 403,-308c241,-49 510,91 609,316c51,116 57,172 57,539c0,188 -4,341 -8,341c-4,0 -12,-4 -17,-9c-18,-17 -179,-78 -255,-97c-93,-23 -344,-27 -430,-5c-196,48 -355,135 -485,266c-68,69 -135,156 -135,175c0,6 -3,10 -8,10c-20,0 -107,208 -129,312.999756c-16,73 -18,141 -18,597l0,515l23,47c57,116 222,161 338,93zm-6081,-89c67,-10 185,-36 210,-46c288,-120 445,-265 570,-530c42,-87 85,-284 85,-384c0,-116 -51,-322.999756 -106,-430.999756c-121,-236 -306,-398 -555,-484c-126,-44 -204,-54 -353,-48c-143,5 -233,28 -372,92c-269,123 -472,383 -535,683.999756c-75,363 74,738 386,969c185,136 459,209 670,178z"/>
    <path fill="#28272d" id="svg_6" d="m4766.158203,4848.999512c-73,-17 -191,-87 -249,-148c-276,-287 -144,-740.999756 248,-857.999756c77,-23 197,-19 279,11c130,48 202,102 278,213c103,149.999756 106,395.999756 6,547.999756c-67,102 -178,187 -298,229c-50,17 -199,20 -264,5z"/>
    <path fill="#28272d" id="svg_7" d="m7020.158203,4845.999512c-144,-40 -274,-149 -338,-283l-37,-78l0,-147c0,-104 4,-151 13,-159c6,-7 12,-19 12,-27c0,-27 88,-148.999756 141,-193.999756c62,-52 152,-100 223,-117c205,-50 438,47 553,232c50,78.999756 60,105.999756 73,189.999756c40,261 -127,515 -384,583c-63,17 -195,17 -256,0z"/>
    <path fill="#28272d" id="svg_8" d="m2550.158203,4852.999512c-59,-10 -206,-92 -257,-144c-122,-122 -178,-316 -138,-482c55,-230.999756 269,-398.999756 509,-397.999756c170,1 344,98 431,241c96,157.999756 103,359.999756 17,522.999756c-59,115 -192,218 -326,253c-48,13 -180,17 -236,7z"/>
   </g>
  </g>
 </g>
</svg>